<svg width="24" height="24" viewBox="0 0 24 24" fill="none" xmlns="http://www.w3.org/2000/svg">
<path d="M8 12C9.06087 12 10.0783 11.5786 10.8284 10.8284C11.5786 10.0783 12 9.06087 12 8C12 6.93913 11.5786 5.92172 10.8284 5.17157C10.0783 4.42143 9.06087 4 8 4C6.93913 4 5.92172 4.42143 5.17157 5.17157C4.42143 5.92172 4 6.93913 4 8C4 9.06087 4.42143 10.0783 5.17157 10.8284C5.92172 11.5786 6.93913 12 8 12ZM17 12C17.7956 12 18.5587 11.6839 19.1213 11.1213C19.6839 10.5587 20 9.79565 20 9C20 8.20435 19.6839 7.44129 19.1213 6.87868C18.5587 6.31607 17.7956 6 17 6C16.2044 6 15.4413 6.31607 14.8787 6.87868C14.3161 7.44129 14 8.20435 14 9C14 9.79565 14.3161 10.5587 14.8787 11.1213C15.4413 11.6839 16.2044 12 17 12ZM3.375 13.5C2.87772 13.5 2.40081 13.6975 2.04917 14.0492C1.69754 14.4008 1.5 14.8777 1.5 15.375V16C1.5 16 1.5 20.5 8 20.5C14.5 20.5 14.5 16 14.5 16V15.375C14.5 14.8777 14.3025 14.4008 13.9508 14.0492C13.5992 13.6975 13.1223 13.5 12.625 13.5H3.375ZM14.337 19.0445C15.025 19.3235 15.8965 19.5 16.9995 19.5C22.2495 19.5 22.2495 15.5 22.2495 15.5V15.375C22.2495 14.8778 22.052 14.401 21.7005 14.0494C21.349 13.6977 20.8722 13.5001 20.375 13.5H14.8035C15.2531 14.0211 15.5 14.6867 15.499 15.375V16.0225L15.4985 16.051C15.4956 16.1481 15.4889 16.245 15.4785 16.3415C15.4537 16.5647 15.4134 16.7859 15.358 17.0035C15.1687 17.7494 14.8204 18.4457 14.337 19.0445Z" fill="#777574"/>
</svg>
