<svg width="25" height="24" viewBox="0 0 25 24" fill="none" xmlns="http://www.w3.org/2000/svg">
<path d="M6.125 20.25L13.625 20.25C14.321 20.2493 14.9882 19.9725 15.4803 19.4803C15.9725 18.9882 16.2493 18.321 16.25 17.625V12.75L9.06078 12.75L11.5302 15.2198C11.6649 15.3616 11.7389 15.5505 11.7364 15.746C11.7339 15.9416 11.6551 16.1285 11.5168 16.2668C11.3785 16.4051 11.1916 16.4839 10.996 16.4864C10.8005 16.4889 10.6116 16.4149 10.4698 16.2802L6.71984 12.5302C6.5793 12.3895 6.50035 12.1988 6.50035 12C6.50035 11.8012 6.5793 11.6105 6.71984 11.4698L10.4698 7.71984C10.6116 7.58513 10.8005 7.51113 10.996 7.51364C11.1916 7.51614 11.3785 7.59495 11.5168 7.73325C11.6551 7.87155 11.7339 8.0584 11.7364 8.25397C11.7389 8.44955 11.6649 8.63836 11.5302 8.78016L9.06078 11.25L16.25 11.25V6.375C16.25 4.87266 14.6661 3.75 13.25 3.75L6.125 3.75C5.42903 3.75074 4.76179 4.02754 4.26967 4.51967C3.77754 5.01179 3.50074 5.67903 3.5 6.375V17.625C3.50074 18.321 3.77754 18.9882 4.26967 19.4803C4.76179 19.9725 5.42903 20.2493 6.125 20.25ZM20.75 12.75C20.9489 12.75 21.1397 12.671 21.2803 12.5303C21.421 12.3897 21.5 12.1989 21.5 12C21.5 11.8011 21.421 11.6103 21.2803 11.4697C21.1397 11.329 20.9489 11.25 20.75 11.25H16.25V12.75H20.75Z" fill="#777574"/>
<path d="M16.25 12.75L9.06078 12.75L11.5302 15.2198C11.6649 15.3616 11.7389 15.5504 11.7364 15.746C11.7339 15.9416 11.6551 16.1284 11.5168 16.2667C11.3785 16.4051 11.1916 16.4839 10.996 16.4864C10.8005 16.4889 10.6116 16.4149 10.4698 16.2802L6.71984 12.5302C6.5793 12.3895 6.50035 12.1988 6.50035 12C6.50035 11.8012 6.5793 11.6105 6.71984 11.4698L10.4698 7.71984C10.6116 7.58513 10.8005 7.51113 10.996 7.51364C11.1916 7.51614 11.3785 7.59494 11.5168 7.73325C11.6551 7.87155 11.7339 8.0584 11.7364 8.25397C11.7389 8.44954 11.6649 8.63836 11.5302 8.78015L9.06078 11.25L16.25 11.25H20.75C20.9489 11.25 21.1397 11.329 21.2803 11.4697C21.421 11.6103 21.5 11.8011 21.5 12C21.5 12.1989 21.421 12.3897 21.2803 12.5303C21.1397 12.671 20.9489 12.75 20.75 12.75H16.25Z" fill="white"/>
</svg>
